<svg xmlns="http://www.w3.org/2000/svg" viewBox="0 0 280.6 116.3">
  <defs>
    <style>
      .cls-1 {
        fill: #8b189b;
      }
    </style>
  </defs>
  <title>TokyoCatch</title>
  <g id="Layer_2" data-name="Layer 2">
    <g>
      <polygon class="cls-1" points="153.57 32.57 154.45 34.35 156.41 34.63 154.99 36.02 155.32 37.97 153.57 37.05 151.81 37.97 152.15 36.02 150.73 34.63 152.69 34.35 153.57 32.57"/>
      <g>
        <path class="cls-1" d="M174.75,26.74V26l5.42-.41c.29,3.26.5,6.47.75,9.67s.47,6.39.71,9.65l-5.44.4L176,43.83a10.06,10.06,0,0,1-8.51,1.49,9.75,9.75,0,0,1-5.22-3.5A10,10,0,0,1,162,29.94a9.79,9.79,0,0,1,5.75-4A10.12,10.12,0,0,1,174.75,26.74Zm-4.56,4.41a4.53,4.53,0,1,0,4.52,4.49A4.55,4.55,0,0,0,170.19,31.15Z"/>
        <path class="cls-1" d="M213.51,24.27H219c0,2.44,0,4.86,0,7.36l4.59-.29c-.24-2.26-.47-4.47-.7-6.75l5.34-.57c.18.47,2.37,21.19,2.33,21.94l-5.37.56c-.35-3.25-.69-6.45-1-9.72l-5.17.33v6.58a37.12,37.12,0,0,1-5.48,0Z"/>
        <path class="cls-1" d="M90.2,22.6h5.42l-.09,7.88L103.15,26l2.77,4.73-8.67,5.09,9.41,5.63-2.81,4.7-8.42-5a5.36,5.36,0,0,0-.09,1.48c0,.49,0,1,0,1.47s0,1,0,1.47,0,1,0,1.54c-1.83.07-3.61-.07-5.38-.06C89.77,46.6,90.07,23.61,90.2,22.6Z"/>
        <path class="cls-1" d="M78.51,46.93a10,10,0,1,1,10-10A10,10,0,0,1,78.51,46.93ZM83,37a4.52,4.52,0,1,0-4.53,4.49A4.51,4.51,0,0,0,83,37Z"/>
        <path class="cls-1" d="M129.84,47.65a10,10,0,1,1,10-10A10,10,0,0,1,129.84,47.65Zm4.53-10a4.53,4.53,0,1,0-4.58,4.5A4.55,4.55,0,0,0,134.37,37.68Z"/>
        <path class="cls-1" d="M157.84,39.86l3.87,3.7c-1.91,2.45-6.3,4.44-10.77,3.67A12.17,12.17,0,1,1,161.43,26.5c-1.25,1.29-2.5,2.59-3.76,3.88a6.79,6.79,0,0,0-9.8.48,6.72,6.72,0,0,0,10,9Z"/>
        <path class="cls-1" d="M118.94,22l4.82,2.63c-4.47,8.19-8.91,16.35-13.39,24.58l-4.8-2.62.28-.55,4.93-9.05c.48-.88.48-.57,0-1.4Q107.89,30.76,105,26c-.09-.14-.16-.29-.27-.48l4.68-2.82,4.79,8Z"/>
        <path class="cls-1" d="M60.65,28.81l-6.27.38L54,23.73l18-1.14c.16,1.82.25,3.61.36,5.46l-6.22.41c.28,5.75.61,11.47.9,17.27L61.58,46C61.25,40.28,61,34.58,60.65,28.81Z"/>
        <path class="cls-1" d="M212.05,30.11,208.28,34A4.64,4.64,0,0,0,204,32.83a4.39,4.39,0,0,0-2.69,1.75,4.56,4.56,0,0,0,.44,6,4.46,4.46,0,0,0,3.31,1.37,4.64,4.64,0,0,0,3.29-1.42l3.9,3.73a9.79,9.79,0,0,1-9.59,2.9,10.07,10.07,0,1,1,9.35-17Z"/>
        <path class="cls-1" d="M191.24,23.81v4.3l3.23-.18c.11,1.81.23,3.59.34,5.45l-3.64.25-.08,13h-5.5c0-4.23.08-8.39.12-12.62-1.2,0-2.33.17-3.47.16a36.46,36.46,0,0,1-.36-5.43l3.88-.27V23.81Z"/>
      </g>
    </g>
    <g>
      <path d="M58.69,60.69h2.05V72.08H58.69V67.14H52.85v4.94h-2V60.69h2v4.77h5.84Z"/>
      <path d="M64.55,71.7a3.58,3.58,0,0,1-1.44-1.47,5.22,5.22,0,0,1,0-4.46,3.58,3.58,0,0,1,1.44-1.47,4.49,4.49,0,0,1,2.17-.51,4.41,4.41,0,0,1,2.15.51,3.62,3.62,0,0,1,1.43,1.47,5.22,5.22,0,0,1,0,4.46,3.62,3.62,0,0,1-1.43,1.47,4.41,4.41,0,0,1-2.15.51A4.49,4.49,0,0,1,64.55,71.7ZM68.27,70a3.93,3.93,0,0,0,0-4,2.1,2.1,0,0,0-3.09,0,3.15,3.15,0,0,0-.55,2,3.1,3.1,0,0,0,.54,2,1.88,1.88,0,0,0,1.55.66A1.9,1.9,0,0,0,68.27,70Z"/>
      <path d="M75,65.5v3.62c0,.95.44,1.42,1.32,1.42a2.93,2.93,0,0,0,.8-.12V72a3.68,3.68,0,0,1-1.28.19,2.76,2.76,0,0,1-2.11-.77,3,3,0,0,1-.73-2.2V65.5H71.47V64H73V62l2-.67V64h2.14v1.5Z"/>
      <path d="M81,65.5v3.62c0,.95.44,1.42,1.33,1.42a3,3,0,0,0,.8-.12V72a3.75,3.75,0,0,1-1.28.19,2.77,2.77,0,0,1-2.12-.77,3,3,0,0,1-.73-2.2V65.5H77.43V64H79V62l2-.67V64h2.14v1.5Z"/>
      <path d="M91.57,68.14H86a2.91,2.91,0,0,0,.65,1.92,2.29,2.29,0,0,0,1.74.61,4,4,0,0,0,2.46-.86l.58,1.37a4.66,4.66,0,0,1-1.42.75,5.55,5.55,0,0,1-1.7.28,4.25,4.25,0,0,1-3.12-1.12A4.11,4.11,0,0,1,84.05,68a4.63,4.63,0,0,1,.5-2.2,3.64,3.64,0,0,1,1.39-1.49,3.85,3.85,0,0,1,2-.54,3.34,3.34,0,0,1,2.63,1.08,4.27,4.27,0,0,1,1,3ZM86.71,65.7a2.32,2.32,0,0,0-.64,1.37h3.76a2.22,2.22,0,0,0-.56-1.37A1.67,1.67,0,0,0,88,65.23,1.86,1.86,0,0,0,86.71,65.7Z"/>
      <path d="M92.74,71.18l.56-1.4a4.83,4.83,0,0,0,3,1,2.13,2.13,0,0,0,1.11-.24.76.76,0,0,0,.39-.68.7.7,0,0,0-.27-.58,2.61,2.61,0,0,0-.93-.38l-1.34-.3C93.75,68.24,93,67.49,93,66.3a2.13,2.13,0,0,1,.42-1.3,2.71,2.71,0,0,1,1.16-.89,4.52,4.52,0,0,1,1.75-.32,5.16,5.16,0,0,1,1.66.27,4.36,4.36,0,0,1,1.41.76l-.59,1.36a4.17,4.17,0,0,0-2.5-.9,1.92,1.92,0,0,0-1.07.26.78.78,0,0,0-.38.7.7.7,0,0,0,.23.56,1.83,1.83,0,0,0,.79.35l1.38.31A3.45,3.45,0,0,1,99,68.3a2,2,0,0,1,.55,1.48,2.07,2.07,0,0,1-.9,1.77,4,4,0,0,1-2.44.66A5.41,5.41,0,0,1,92.74,71.18Z"/>
      <path d="M103.75,65.5v3.62c0,.95.44,1.42,1.32,1.42a2.93,2.93,0,0,0,.8-.12V72a3.71,3.71,0,0,1-1.28.19,2.76,2.76,0,0,1-2.11-.77,3,3,0,0,1-.73-2.2V65.5h-1.56V64h1.56V62l2-.67V64h2.14v1.5Z"/>
      <path d="M111.65,72.08V60.3h2V72.08Z"/>
      <path d="M115.7,60.34h2.22v2H115.7Zm.12,11.74V64h2v8.08Z"/>
      <path d="M125.66,64h2l-3.54,8.06h-1.74L118.88,64H121l2.32,5.79Z"/>
      <path d="M135.62,68.14h-5.57a2.91,2.91,0,0,0,.65,1.92,2.27,2.27,0,0,0,1.73.61,4,4,0,0,0,2.47-.86l.57,1.37a4.49,4.49,0,0,1-1.41.75,5.57,5.57,0,0,1-1.71.28,4.29,4.29,0,0,1-3.12-1.12A4.15,4.15,0,0,1,128.1,68a4.75,4.75,0,0,1,.49-2.2A3.7,3.7,0,0,1,130,64.33a3.89,3.89,0,0,1,2-.54,3.36,3.36,0,0,1,2.63,1.08,4.32,4.32,0,0,1,1,3Zm-4.86-2.44a2.33,2.33,0,0,0-.65,1.37h3.76a2.22,2.22,0,0,0-.55-1.37,1.67,1.67,0,0,0-1.26-.47A1.85,1.85,0,0,0,130.76,65.7Z"/>
      <path d="M143.17,71.7a3.56,3.56,0,0,1-1.43-1.45,4.66,4.66,0,0,1-.49-2.2,4.59,4.59,0,0,1,.52-2.23,3.76,3.76,0,0,1,1.47-1.49,4.4,4.4,0,0,1,2.2-.54,5.22,5.22,0,0,1,1.67.27,3.37,3.37,0,0,1,1.29.76l-.56,1.4a4.12,4.12,0,0,0-1.09-.63,3.27,3.27,0,0,0-1.13-.21,2.13,2.13,0,0,0-1.7.68,2.81,2.81,0,0,0-.61,2,2.84,2.84,0,0,0,.6,2,2.17,2.17,0,0,0,1.71.67,3.07,3.07,0,0,0,1.13-.22,4.16,4.16,0,0,0,1.09-.64l.56,1.4a3.63,3.63,0,0,1-1.33.76,5.37,5.37,0,0,1-1.71.27A4.49,4.49,0,0,1,143.17,71.7Z"/>
      <path d="M154.9,63.94l0,1.82a2.75,2.75,0,0,0-1.06-.21,2,2,0,0,0-1.56.59,2.29,2.29,0,0,0-.53,1.57v4.37h-2V66.29a19.46,19.46,0,0,0-.12-2.29h1.87l.16,1.42a2.4,2.4,0,0,1,1-1.2,2.78,2.78,0,0,1,1.49-.41A2.17,2.17,0,0,1,154.9,63.94Z"/>
      <path d="M163.58,64v8.08h-2v-1.3a2.61,2.61,0,0,1-1.06,1,3.23,3.23,0,0,1-1.57.38,3.45,3.45,0,0,1-1.87-.51,3.4,3.4,0,0,1-1.26-1.46,5,5,0,0,1-.45-2.19,5.24,5.24,0,0,1,.45-2.22,3.62,3.62,0,0,1,1.28-1.5,3.27,3.27,0,0,1,1.85-.54,3.23,3.23,0,0,1,1.57.38,2.61,2.61,0,0,1,1.06,1V64Zm-2.51,6a3.06,3.06,0,0,0,.55-1.93,3.12,3.12,0,0,0-.55-2,1.86,1.86,0,0,0-1.55-.69,1.84,1.84,0,0,0-1.54.71,3.17,3.17,0,0,0-.56,2A3,3,0,0,0,158,70a1.88,1.88,0,0,0,1.56.67A1.83,1.83,0,0,0,161.07,70Z"/>
      <path d="M173.28,67.12v5h-2V67.22a2.13,2.13,0,0,0-.37-1.4,1.36,1.36,0,0,0-1.13-.44,2,2,0,0,0-1.48.58,2.14,2.14,0,0,0-.56,1.54v4.58h-2V66.29a17.38,17.38,0,0,0-.13-2.29h1.87l.15,1.33a2.88,2.88,0,0,1,1.13-1.14,3.27,3.27,0,0,1,1.6-.4Q173.28,63.79,173.28,67.12Z"/>
      <path d="M182.48,68.14h-5.57a3,3,0,0,0,.65,1.92,2.29,2.29,0,0,0,1.74.61,4,4,0,0,0,2.46-.86l.58,1.37a4.66,4.66,0,0,1-1.42.75,5.55,5.55,0,0,1-1.7.28,4.25,4.25,0,0,1-3.12-1.12A4.11,4.11,0,0,1,175,68a4.75,4.75,0,0,1,.5-2.2,3.64,3.64,0,0,1,1.39-1.49,3.85,3.85,0,0,1,2-.54,3.34,3.34,0,0,1,2.63,1.08,4.27,4.27,0,0,1,1,3Zm-4.86-2.44a2.32,2.32,0,0,0-.64,1.37h3.76a2.22,2.22,0,0,0-.56-1.37,1.67,1.67,0,0,0-1.25-.47A1.86,1.86,0,0,0,177.62,65.7Z"/>
      <path d="M196.37,64v7.82a3.76,3.76,0,0,1-1,2.87,4.32,4.32,0,0,1-3.06,1,6.7,6.7,0,0,1-3.29-.78l.32-1.52a6.28,6.28,0,0,0,2.92.77A1.91,1.91,0,0,0,194.38,72v-1.6a2.75,2.75,0,0,1-1.07,1.07,3.13,3.13,0,0,1-1.58.41,3.49,3.49,0,0,1-1.88-.51,3.33,3.33,0,0,1-1.28-1.42,5,5,0,0,1,0-4.21,3.33,3.33,0,0,1,1.28-1.42,3.49,3.49,0,0,1,1.88-.51,3.28,3.28,0,0,1,1.59.38,2.55,2.55,0,0,1,1.06,1V64Zm-2.55,5.63a2.7,2.7,0,0,0,.56-1.81,2.64,2.64,0,0,0-.56-1.8,2.17,2.17,0,0,0-3.12,0,3.14,3.14,0,0,0,0,3.61,1.93,1.93,0,0,0,1.56.66A2,2,0,0,0,193.82,69.63Z"/>
      <path d="M206.26,64v8.08h-2v-1.3a2.61,2.61,0,0,1-1.06,1,3.23,3.23,0,0,1-1.57.38,3.31,3.31,0,0,1-3.13-2,5,5,0,0,1-.45-2.19,5.09,5.09,0,0,1,.46-2.22,3.53,3.53,0,0,1,1.27-1.5,3.27,3.27,0,0,1,1.85-.54,3.23,3.23,0,0,1,1.57.38,2.61,2.61,0,0,1,1.06,1V64Zm-2.52,6a3,3,0,0,0,.55-1.93,3.06,3.06,0,0,0-.55-2,2.06,2.06,0,0,0-3.09,0,3.17,3.17,0,0,0-.55,2,3,3,0,0,0,.55,1.92,1.9,1.9,0,0,0,1.56.67A1.83,1.83,0,0,0,203.74,70Z"/>
      <path d="M220,64.62a4,4,0,0,1,.67,2.5v5h-2v-4.9a2.42,2.42,0,0,0-.31-1.38,1.22,1.22,0,0,0-1-.42A1.57,1.57,0,0,0,216,66a2.47,2.47,0,0,0-.47,1.61v4.51h-2v-4.9a2.26,2.26,0,0,0-.33-1.37,1.2,1.2,0,0,0-1-.43,1.59,1.59,0,0,0-1.31.58,2.47,2.47,0,0,0-.48,1.61v4.51h-2V66.29A17.38,17.38,0,0,0,208.3,64h1.88l.14,1.28a2.42,2.42,0,0,1,1-1.1,2.94,2.94,0,0,1,1.52-.39,2.3,2.3,0,0,1,2.42,1.54,2.78,2.78,0,0,1,1.1-1.13,3.14,3.14,0,0,1,1.59-.41A2.51,2.51,0,0,1,220,64.62Z"/>
      <path d="M229.89,68.14h-5.57a2.91,2.91,0,0,0,.65,1.92,2.28,2.28,0,0,0,1.73.61,4,4,0,0,0,2.47-.86l.57,1.37a4.49,4.49,0,0,1-1.41.75,5.57,5.57,0,0,1-1.71.28,4.29,4.29,0,0,1-3.12-1.12A4.15,4.15,0,0,1,222.37,68a4.75,4.75,0,0,1,.49-2.2,3.66,3.66,0,0,1,1.4-1.49,3.83,3.83,0,0,1,2-.54,3.36,3.36,0,0,1,2.63,1.08,4.32,4.32,0,0,1,1,3ZM225,65.7a2.39,2.39,0,0,0-.65,1.37h3.76a2.16,2.16,0,0,0-.55-1.37,1.67,1.67,0,0,0-1.25-.47A1.86,1.86,0,0,0,225,65.7Z"/>
      <path d="M63.78,90.38l.56-1.4a4.83,4.83,0,0,0,3,1,2.13,2.13,0,0,0,1.11-.24A.76.76,0,0,0,68.8,89a.7.7,0,0,0-.27-.58,2.61,2.61,0,0,0-.93-.38l-1.34-.3c-1.47-.32-2.21-1.07-2.21-2.26a2.13,2.13,0,0,1,.42-1.3,2.71,2.71,0,0,1,1.16-.89A4.52,4.52,0,0,1,67.38,83a5.16,5.16,0,0,1,1.66.27,4.36,4.36,0,0,1,1.41.76l-.59,1.36a4.17,4.17,0,0,0-2.5-.9,1.92,1.92,0,0,0-1.07.26.78.78,0,0,0-.38.7.7.7,0,0,0,.23.56,1.83,1.83,0,0,0,.79.35l1.38.31a3.45,3.45,0,0,1,1.75.84A2,2,0,0,1,70.61,89a2.07,2.07,0,0,1-.9,1.77,4,4,0,0,1-2.44.66A5.41,5.41,0,0,1,63.78,90.38Z"/>
      <path d="M74.79,84.7v3.62c0,1,.44,1.42,1.32,1.42a2.93,2.93,0,0,0,.8-.12V91.2a3.71,3.71,0,0,1-1.28.19,2.76,2.76,0,0,1-2.11-.77,3,3,0,0,1-.73-2.2V84.7H71.23V83.2h1.56v-2l2-.67V83.2h2.14v1.5Z"/>
      <path d="M83.46,83.14l0,1.82a2.73,2.73,0,0,0-1-.21,2,2,0,0,0-1.56.59,2.25,2.25,0,0,0-.54,1.57v4.37h-2V85.49a19.29,19.29,0,0,0-.13-2.29h1.87l.16,1.42a2.4,2.4,0,0,1,1-1.2A2.78,2.78,0,0,1,82.66,83,2.17,2.17,0,0,1,83.46,83.14Z"/>
      <path d="M92.15,83.2v8.08h-2V90a2.61,2.61,0,0,1-1.06,1,3.23,3.23,0,0,1-1.57.38,3.31,3.31,0,0,1-3.13-2A5,5,0,0,1,84,87.25,5.09,5.09,0,0,1,84.43,85a3.53,3.53,0,0,1,1.27-1.5A3.27,3.27,0,0,1,87.55,83a3.23,3.23,0,0,1,1.57.38,2.61,2.61,0,0,1,1.06,1V83.2Zm-2.52,6a3,3,0,0,0,.55-1.93,3.06,3.06,0,0,0-.55-2,2.06,2.06,0,0,0-3.09,0,3.17,3.17,0,0,0-.55,2,3,3,0,0,0,.55,1.92,1.9,1.9,0,0,0,1.56.67A1.83,1.83,0,0,0,89.63,89.15Z"/>
      <path d="M94.19,79.54h2.23v2H94.19Zm.13,11.74V83.2h2v8.08Z"/>
      <path d="M106.31,83.2V91a3.76,3.76,0,0,1-1,2.87,4.34,4.34,0,0,1-3.06,1,6.76,6.76,0,0,1-3.3-.78l.32-1.52a6.32,6.32,0,0,0,2.93.77,1.91,1.91,0,0,0,2.16-2.15v-1.6a2.75,2.75,0,0,1-1.07,1.07,3.13,3.13,0,0,1-1.58.41,3.46,3.46,0,0,1-1.88-.51,3.33,3.33,0,0,1-1.28-1.42,5,5,0,0,1,0-4.21,3.33,3.33,0,0,1,1.28-1.42,3.46,3.46,0,0,1,1.88-.51,3.34,3.34,0,0,1,1.59.38,2.55,2.55,0,0,1,1.06,1V83.2Zm-2.56,5.63a2.65,2.65,0,0,0,.57-1.81,2.69,2.69,0,0,0-.56-1.8,1.93,1.93,0,0,0-1.57-.66,2,2,0,0,0-1.56.66,3.14,3.14,0,0,0,0,3.61,2.17,2.17,0,0,0,3.12,0Z"/>
      <path d="M116,86.32v5h-2V86.42a2.2,2.2,0,0,0-.36-1.4,1.39,1.39,0,0,0-1.14-.44,1.93,1.93,0,0,0-1.47.58,2.14,2.14,0,0,0-.56,1.54v4.58h-2V79.5h2v4.87a2.84,2.84,0,0,1,1.1-1,3.27,3.27,0,0,1,1.54-.36Q116,83,116,86.32Z"/>
      <path d="M120.66,84.7v3.62c0,1,.44,1.42,1.32,1.42a2.93,2.93,0,0,0,.8-.12V91.2a3.68,3.68,0,0,1-1.28.19,2.76,2.76,0,0,1-2.11-.77,3,3,0,0,1-.73-2.2V84.7H117.1V83.2h1.56v-2l2-.67V83.2h2.14v1.5Z"/>
      <path d="M131.09,82.51v.69h1.81v1.5h-1.81v6.58h-2V84.7h-1.54V83.2h1.54v-.78a3.11,3.11,0,0,1,.73-2.22,2.7,2.7,0,0,1,2.08-.78,3.56,3.56,0,0,1,1.27.2V81.2a3.55,3.55,0,0,0-.79-.11C131.52,81.09,131.09,81.56,131.09,82.51Z"/>
      <path d="M139.58,83.14V85a2.78,2.78,0,0,0-1.06-.21,2,2,0,0,0-1.56.59,2.25,2.25,0,0,0-.53,1.57v4.37h-2V85.49a17.38,17.38,0,0,0-.13-2.29h1.88l.16,1.42a2.4,2.4,0,0,1,1-1.2,2.74,2.74,0,0,1,1.48-.41A2.13,2.13,0,0,1,139.58,83.14Z"/>
      <path d="M142,90.9a3.58,3.58,0,0,1-1.44-1.47,5.22,5.22,0,0,1,0-4.46A3.58,3.58,0,0,1,142,83.5a4.46,4.46,0,0,1,2.17-.51,4.37,4.37,0,0,1,2.14.51A3.5,3.5,0,0,1,147.78,85a5.13,5.13,0,0,1,0,4.46,3.5,3.5,0,0,1-1.43,1.47,4.37,4.37,0,0,1-2.14.51A4.46,4.46,0,0,1,142,90.9Zm3.71-1.72a3.87,3.87,0,0,0,0-4,1.85,1.85,0,0,0-1.53-.68,1.88,1.88,0,0,0-1.55.68,3.87,3.87,0,0,0,0,4,1.86,1.86,0,0,0,1.54.66A1.89,1.89,0,0,0,145.75,89.18Z"/>
      <path d="M161.6,83.82a3.89,3.89,0,0,1,.67,2.5v5h-2v-4.9A2.34,2.34,0,0,0,160,85a1.2,1.2,0,0,0-1-.42,1.59,1.59,0,0,0-1.31.58,2.53,2.53,0,0,0-.47,1.61v4.51h-2v-4.9a2.34,2.34,0,0,0-.32-1.37,1.22,1.22,0,0,0-1-.43,1.6,1.6,0,0,0-1.31.58,2.47,2.47,0,0,0-.48,1.61v4.51h-2V85.49a19.29,19.29,0,0,0-.13-2.29h1.87l.14,1.28a2.53,2.53,0,0,1,1-1.1,3,3,0,0,1,1.53-.39,2.29,2.29,0,0,1,2.41,1.54A2.85,2.85,0,0,1,158,83.4a3.19,3.19,0,0,1,1.59-.41A2.49,2.49,0,0,1,161.6,83.82Z"/>
      <path d="M167.66,92.45a11,11,0,0,0,1.16.11,1.28,1.28,0,0,0,1.07-.38,2.44,2.44,0,0,0,.29-1.38V79.89h2.06V90.8a4.1,4.1,0,0,1-.69,2.65,2.91,2.91,0,0,1-2.35.82,9,9,0,0,1-1.54-.13Z"/>
      <path d="M182.29,83.2v8.08h-2V90a2.61,2.61,0,0,1-1.06,1,3.22,3.22,0,0,1-1.56.38,3.31,3.31,0,0,1-3.14-2,5,5,0,0,1-.45-2.19,5.09,5.09,0,0,1,.46-2.22,3.6,3.6,0,0,1,1.27-1.5A3.28,3.28,0,0,1,177.7,83a3.22,3.22,0,0,1,1.56.38,2.61,2.61,0,0,1,1.06,1V83.2Zm-2.51,6a3.06,3.06,0,0,0,.54-1.93,3.12,3.12,0,0,0-.54-2,1.88,1.88,0,0,0-1.56-.69,1.85,1.85,0,0,0-1.54.71,3.17,3.17,0,0,0-.55,2,3,3,0,0,0,.55,1.92,1.9,1.9,0,0,0,1.56.67A1.86,1.86,0,0,0,179.78,89.15Z"/>
      <path d="M190.92,83.53a3.58,3.58,0,0,1,1.26,1.5,5.09,5.09,0,0,1,.46,2.22,5,5,0,0,1-.45,2.19,3.52,3.52,0,0,1-1.25,1.46,3.43,3.43,0,0,1-1.87.51A3.26,3.26,0,0,1,187.5,91a2.53,2.53,0,0,1-1.05-1v4.76h-2V85.49a19.46,19.46,0,0,0-.12-2.29h1.87l.16,1.39a2.41,2.41,0,0,1,1-1.17,3.14,3.14,0,0,1,1.66-.43A3.24,3.24,0,0,1,190.92,83.53Zm-.84,5.64a3,3,0,0,0,.54-1.92,3.23,3.23,0,0,0-.54-2,1.82,1.82,0,0,0-1.54-.71,1.86,1.86,0,0,0-1.56.69,3.06,3.06,0,0,0-.55,2,3,3,0,0,0,.55,1.94,2.12,2.12,0,0,0,3.1,0Z"/>
      <path d="M202.11,83.2v8.08h-2V90a2.53,2.53,0,0,1-1,1,3.23,3.23,0,0,1-1.57.38,3.34,3.34,0,0,1-3.14-2,5,5,0,0,1-.44-2.19,5.24,5.24,0,0,1,.45-2.22,3.68,3.68,0,0,1,1.27-1.5,3.32,3.32,0,0,1,1.86-.54,3.23,3.23,0,0,1,1.57.38,2.53,2.53,0,0,1,1,1V83.2Zm-2.51,6a3.06,3.06,0,0,0,.54-1.93,3.12,3.12,0,0,0-.54-2,2.07,2.07,0,0,0-3.1,0,3.23,3.23,0,0,0-.55,2,3,3,0,0,0,.55,1.92,1.9,1.9,0,0,0,1.56.67A1.84,1.84,0,0,0,199.6,89.15Z"/>
      <path d="M211.81,86.32v5h-2V86.42a2.13,2.13,0,0,0-.37-1.4,1.38,1.38,0,0,0-1.14-.44,2,2,0,0,0-1.47.58,2.14,2.14,0,0,0-.56,1.54v4.58h-2V85.49a17.38,17.38,0,0,0-.13-2.29H206l.15,1.33a2.92,2.92,0,0,1,1.12-1.14,3.31,3.31,0,0,1,1.61-.4Q211.81,83,211.81,86.32Z"/>
      <path d="M214.24,87.86l-.64-8,2.48,0-.62,8ZM213.73,89H216v2.24h-2.24Z"/>
    </g>
  </g>
</svg>
